<?xml version="1.0" encoding="UTF-8"?>
<svg id="Layer_1" data-name="Layer 1" xmlns="http://www.w3.org/2000/svg" viewBox="0 0 304.25 302.81">
  <defs>
    <style>
      .cls-1 {
        fill: #fff;
      }
    </style>
  </defs>
  <path d="M284.55,137.34c0-2.54,0-5.08-.17-7.62h.17C280.72,58.82,223.03,2.46,152.37,2.46c-2.66,0-5.15,0-7.65.17C75.06,6.52,19.7,65.25,19.7,137.17s53.54,128.79,121.7,134.37c1.66.17,3.16-1.35,3.16-3.05v-70.4c.67-3.55,3.82-6.09,7.48-6.09,4.16,0,7.65,3.56,7.65,7.79v97.31c0,2.71,2.99,4.23,5.15,2.54l26.6-21.66,41.73-34.19c31.26-24.71,51.37-63.12,51.37-106.45Z"/>
  <path class="cls-1" d="M152.04,203.68c46.46,0,84.13-38.34,84.13-85.63s-37.66-85.63-84.13-85.63-84.13,38.34-84.13,85.63,37.66,85.63,84.13,85.63Z"/>
  <path d="M144.56,172.21c.67.34,7.98,2.88,14.96,0,2.99-1.52,5.99-3.05,5.99-7.45,0-3.56-3.33-7.11-13.63-7.11s-13.63,3.55-13.63,7.11c.33,4.4,3.33,6.09,6.32,7.45Z"/>
  <path d="M205.74,158.49c2.99-4.74,5.15-10.15,5.15-16.25,0-15.57-12.47-28.26-27.76-28.26-3.16,0-6.32.51-9.14,1.52,0,0-10.64,4.23-12.47,15.23-1.83,11,7.65,13.2,13.63,14.89,5.99,1.69,11.64,7.11,13.96,10.49,2.33,3.38,4.32,6.09,8.81,6.09s6.48-1.52,7.81-3.72Z"/>
  <path d="M94.39,157.35c-2.99-4.74-5.15-10.15-5.15-16.25,0-15.57,12.47-28.26,27.77-28.26,3.16,0,6.32.51,9.14,1.52,0,0,10.64,4.23,12.47,15.23,1.83,11-7.65,13.2-13.63,14.89-5.99,1.69-11.64,7.11-13.97,10.49-2.33,3.38-4.32,6.09-8.81,6.09-4.32.34-6.48-1.52-7.81-3.72Z"/>
</svg>